<svg width="50" height="50" viewBox="0 0 50 50" fill="none" xmlns="http://www.w3.org/2000/svg">
<path d="M41.9375 8.625C41.2734 8.64844 40.664 9 40.3125 9.5625L21.5 38.3438L9.31245 27.8125C8.78901 27.2695 8.00386 27.0664 7.2812 27.293C6.56245 27.5156 6.02729 28.125 5.90229 28.8672C5.77729 29.6133 6.07808 30.3633 6.68745 30.8125L20.625 42.875C21.0625 43.2461 21.6406 43.4102 22.207 43.3281C22.7773 43.2422 23.2812 42.918 23.5937 42.4375L43.6875 11.75C44.1171 11.1211 44.1523 10.3086 43.7812 9.64453C43.4101 8.98438 42.6953 8.58984 41.9375 8.625Z" fill="#E47F22"/>
</svg>
